Simulation
nRows=23
nColumns=15
endheader
time  TH_x TH_y TH_z SC_y  SC_z  SC_x  AC_y  AC_z  AC_x  GH_y  GH_z  GH_yy  EL_x  PS_y
0.0  0.000000  0.000000  0.000000  -30.31505044620957  0.38580151655737493  -7.2797683771284065  53.10613649206526  11.804662104647027  -2.1840250111687416  27.49649112930662  1.2579995813069191  1.7292649199317511  22.887084068869733  0.000000
0.03099999999999998  0.000000  0.000000  0.000000  -30.255057932995033  0.30812490777404034  -6.070389752101425  53.03807840129328  11.005982897232892  -3.128144602584691  27.469389639518926  1.686680800948361  1.852385133889396  22.808096111558903  0.000000
0.06199999999999996  0.000000  0.000000  0.000000  -30.17858372722013  0.2134354544825201  -4.929109185199671  52.983103430223004  10.208500547897776  -4.036888981739675  27.442056682509165  2.0850379523189537  1.9827302711249466  22.727742751688716  0.000000
0.09299999999999994  0.000000  0.000000  0.000000  -30.11146613037462  0.11005584652099669  -3.8654426750012916  52.93540778207515  9.426718758368601  -4.893080831438276  27.390740253527053  2.4673381683407745  2.124817877846298  22.637237939691534  0.000000
0.12399999999999992  0.000000  0.000000  0.000000  -30.052861622814916  0.0022114007034751797  -2.88434176927816  52.895146288252626  8.676338929169841  -5.689036511570559  27.297773606065046  2.848566927471599  2.2811300110667396  22.526771633074677  0.000000
0.1549999999999999  0.000000  0.000000  0.000000  -30.01502938889157  -0.10363903523711451  -1.9890461580112924  52.86211046862971  7.9708394805480545  -6.416814901084442  27.14108361892903  3.2475563026783667  2.4566726511054053  22.394223879034744  0.000000
0.1859999999999999  0.000000  0.000000  0.000000  -30.000625956051262  -0.2017886154285375  -1.1802631415246088  52.83513332958543  7.320637538358989  -7.071630264507788  26.90077068261822  3.6801101530014715  2.654809120211447  22.23919882383197  0.000000
0.21699999999999986  0.000000  0.000000  0.000000  -30.01157179017788  -0.2881102571016638  -0.45693366076356007  52.8153149743705  6.732909133273946  -7.650908167517586  26.56304572418992  4.160861358288153  2.8758807482216047  22.066170353676654  0.000000
0.24799999999999983  0.000000  0.000000  0.000000  -30.046446239861936  -0.35883629197471645  0.18294019553903518  52.80319244633154  6.211583828567614  -8.152597647089644  26.116994113593915  4.700529296355219  3.1197015277496587  21.882550880633815  0.000000
0.2789999999999998  0.000000  0.000000  0.000000  -30.102065237145304  -0.41190781654195574  0.7423473352738201  52.80151767827413  5.757428103755982  -8.575568473840784  25.557968177134168  5.307662726602186  3.384191994539871  21.69795712037474  0.000000
0.3099999999999998  0.000000  0.000000  0.000000  -30.174759687046834  -0.44662548343181846  1.224483998103395  52.8135139251223  5.368640301024619  -8.918901858790308  24.884236293503893  5.988599699875341  3.666844847632889  21.523895476830614  0.000000
0.34099999999999975  0.000000  0.000000  0.000000  -30.261689615957177  -0.46403066989139946  1.6323063490225067  52.84374729089857  5.041175895576253  -9.182151483304624  24.097155311940117  6.749269205992509  3.964876683348478  21.371935723411177  0.000000
0.3719999999999998  0.000000  0.000000  0.000000  -30.361520164462092  -0.4668796727920062  1.9681509239267585  52.89707092353271  4.769944653165429  -9.365510287048272  23.200301487759113  7.5957327606261185  4.275586170733528  21.253115422440718  0.000000
0.40299999999999975  0.000000  0.000000  0.000000  -30.473612335058185  -0.45864052758354223  2.233831538048168  52.97780823758913  4.549704704749417  -9.47014611716216  22.201338710226164  8.53465756677778  4.596729372075209  21.175753547305952  0.000000
0.4339999999999997  0.000000  0.000000  0.000000  -30.596542036780118  -0.44296566656243236  2.431563944698589  53.08844953531322  4.376566655193675  -9.499218276610158  21.11458773525426  9.572735069218574  4.92625359572479  21.143875449389203  0.000000
0.4649999999999997  0.000000  0.000000  0.000000  -30.726374635045392  -0.4223855586059165  2.5655979373599185  53.227828216826836  4.248842578977267  -9.459004979155882  19.96277991621438  10.715283579015654  5.262455765443016  21.155462724806284  0.000000
0.49599999999999966  0.000000  0.000000  0.000000  -30.857314877845  -0.39658665216804134  2.6411302443478304  53.39021945197003  4.168708027553399  -9.357940843125187  18.77607874658361  11.964519903227846  5.604444332983511  21.203161698696835  0.000000
0.5269999999999997  0.000000  0.000000  0.000000  -30.983631803146444  -0.3624707129051638  2.661445121250074  53.565604166426255  4.142842785393306  -9.203953327315492  17.587072763003462  13.318542173722328  5.953179266415347  21.275315295840315  0.000000
0.5579999999999996  0.000000  0.000000  0.000000  -31.1016897805013  -0.31533655447905057  2.6323331584080774  53.742780860853124  4.176660091654592  -9.005555397481615  16.424245503629614  14.771185667492334  6.312227527169708  21.35784330554404  0.000000
0.5889999999999996  0.000000  0.000000  0.000000  -31.210750711926888  -0.24951018836947858  2.567480687692235  53.912041850165934  4.269234784532872  -8.77471080328382  15.30629634797477  16.312086695417154  6.688992560194804  21.438015233321142  0.000000
0.6199999999999996  0.000000  0.000000  0.000000  -31.312485985903226  -0.16036335818933287  2.4865803153179518  54.066719006551274  4.415032465417839  -8.525501981184057  14.240072450604375  17.92723130324127  7.093598518796376  21.50637927706899  0.000000
0.6509999999999996  0.000000  0.000000  0.000000  -31.408047698092908  -0.04610786585024269  2.411918921594695  54.20437838319761  4.60636846913167  -8.271875023745203  13.221296858273234  19.59956633948329  7.535850243023823  21.557104529886608  0.000000
0.6819999999999995  0.000000  0.000000  0.000000  -31.494999577345144  0.09171980273788988  2.3675568763283366  54.32730533880643  4.833425954685836  -8.027105233406866  12.237881921905675  21.30997231213704  8.021728425033375  21.58729505916064  0.000000
